<?xml version="1.0" standalone="no"?>
<!DOCTYPE svg PUBLIC "-//W3C//DTD SVG 20010904//EN"
 "http://www.w3.org/TR/2001/REC-SVG-20010904/DTD/svg10.dtd">
<svg version="1.0" xmlns="http://www.w3.org/2000/svg"
 width="800.000000pt" height="450.000000pt" viewBox="0 0 800.000000 450.000000"
 preserveAspectRatio="xMidYMid meet">
<metadata>
Created by potrace 1.15, written by Peter Selinger 2001-2017
</metadata>
<g transform="translate(0.000000,450.000000) scale(0.100000,-0.100000)"
fill="#000000" stroke="none">
<path d="M0 2250 l0 -2250 2523 0 2523 0 36 38 c35 36 59 96 72 177 13 77 18
95 27 95 5 0 9 -7 9 -16 0 -27 25 -9 30 22 5 28 5 28 19 -14 13 -37 13 -54 2
-110 -7 -37 -15 -86 -16 -109 -2 -23 -9 -51 -15 -62 l-11 -21 1096 0 1095 0
-5 23 c-3 12 -9 43 -15 68 -5 25 -16 58 -24 73 -14 27 -11 66 4 66 5 0 6 10 3
23 l-6 22 22 -22 c12 -13 21 -36 22 -55 1 -30 2 -31 8 -8 5 16 13 24 24 22 14
-2 17 6 17 50 0 29 7 87 16 128 8 41 16 89 18 107 1 18 5 36 9 39 12 12 7 -68
-9 -161 -9 -49 -17 -140 -18 -202 -1 -99 1 -114 20 -140 l21 -28 252 -3 251
-2 0 465 c0 394 -2 465 -14 465 -8 0 -16 4 -18 10 -2 7 -73 19 -135 23 -7 0
-13 4 -13 7 0 4 41 5 90 2 66 -3 90 -2 90 7 0 8 -8 10 -20 6 -11 -4 -20 -2
-20 4 0 6 -9 11 -20 11 -11 0 -20 5 -20 11 0 7 7 8 18 4 9 -4 27 -10 40 -12
20 -5 22 -2 22 34 l0 40 -105 23 c-58 14 -105 28 -105 33 0 5 -7 7 -15 3 -8
-3 -15 -1 -15 4 0 6 -5 10 -11 10 -5 0 -8 -4 -5 -9 3 -5 -1 -11 -9 -15 -24 -9
-17 -26 9 -26 14 0 28 -5 31 -10 8 -13 -41 -13 -66 0 -10 6 -19 17 -19 25 0
23 -43 28 -181 22 -130 -6 -154 0 -125 28 17 17 97 21 94 4 -2 -7 73 -11 237
-12 172 -2 246 -6 263 -15 l22 -13 0 1686 0 1685 -4000 0 -4000 0 0 -2250z
m1746 1994 c15 -19 40 -42 56 -50 15 -8 27 -18 26 -22 -1 -4 4 -20 10 -35 7
-16 9 -33 6 -39 -4 -6 -3 -8 3 -5 6 4 18 -10 27 -31 13 -30 15 -44 7 -66 -15
-37 -14 -46 4 -46 8 0 15 -5 15 -11 0 -7 8 -18 18 -25 14 -11 15 -15 3 -23
-20 -13 -41 -2 -42 23 l0 21 -11 -22 c-15 -31 -42 -34 -146 -16 -75 14 -99 14
-126 5 -58 -21 -73 -16 -80 26 -17 107 -2 157 54 179 22 9 40 20 40 25 0 10
-8 10 -48 -1 -17 -5 -32 -8 -32 -7 0 2 5 18 12 37 26 77 76 118 145 119 25 0
38 -8 59 -36z m125 -401 c0 -21 3 -56 7 -77 6 -34 12 -41 39 -48 41 -11 45
-18 28 -52 -8 -15 -14 -30 -14 -34 5 -34 -5 -52 -38 -69 -27 -14 -39 -27 -41
-46 -3 -25 -5 -25 -56 -20 -55 6 -112 -14 -123 -43 -3 -7 -12 -14 -20 -14 -9
0 -12 -6 -8 -19 7 -22 -16 -44 -39 -35 -9 3 -16 1 -16 -5 0 -6 -9 -11 -20 -11
-14 0 -18 5 -13 17 4 11 3 14 -5 9 -7 -4 -26 15 -48 48 -32 49 -35 60 -30 98
4 24 8 61 9 83 2 34 8 43 40 64 32 21 37 29 38 65 1 39 16 104 18 78 1 -7 12
-17 25 -23 13 -6 27 -20 29 -30 5 -20 27 -27 27 -9 0 6 5 10 11 10 6 0 17 7
25 15 9 9 34 15 59 15 44 0 65 13 85 51 17 30 30 22 31 -18z m2493 -85 c12
-48 8 -54 -32 -50 -61 6 -80 -35 -22 -45 25 -5 61 7 55 17 -3 6 -1 10 4 10 6
0 11 -16 11 -36 0 -30 2 -34 14 -25 20 17 30 -3 15 -31 -12 -22 -12 -22 -20
-3 -7 18 -9 16 -13 -14 0 -5 -4 -13 -8 -17 -5 -4 -8 -15 -8 -25 0 -10 -6 -21
-12 -25 -7 -4 -10 -4 -6 1 4 4 -6 21 -22 39 -17 17 -30 36 -30 42 0 6 -11 12
-25 12 -16 0 -25 -6 -25 -16 0 -8 -11 -25 -25 -38 l-26 -24 -14 33 c-8 17 -14
26 -15 20 0 -22 -16 -14 -28 12 -16 35 -15 37 8 30 19 -6 20 -2 20 70 0 85 -4
80 88 99 66 14 105 2 116 -36z m-1569 -17 c71 -44 78 -57 73 -137 -3 -50 -10
-80 -21 -92 -10 -10 -17 -26 -17 -35 0 -9 -5 -17 -10 -17 -6 0 -22 -11 -35
-24 -28 -28 -62 -38 -104 -30 -42 9 -39 24 3 24 19 0 41 3 50 6 27 10 7 24
-36 24 -23 0 -39 2 -37 5 9 8 63 9 87 1 32 -11 29 17 -4 39 -21 13 -24 19 -13
26 11 6 10 9 -3 14 -30 12 -63 2 -60 -18 4 -26 -48 -74 -59 -55 -18 26 -31 92
-25 122 4 17 7 37 8 44 1 6 5 12 9 12 4 0 10 16 13 35 13 67 114 98 181 56z
m2300 -5 c15 -11 17 -17 7 -28 -9 -11 -8 -19 3 -35 13 -19 12 -20 -30 -21 -24
0 -51 -5 -61 -10 -13 -7 -22 -6 -32 4 -19 19 -36 18 -28 -2 5 -14 4 -15 -8 -5
-8 7 -20 11 -28 10 -7 -1 -20 -1 -28 0 -13 1 -13 2 0 11 12 7 13 15 3 39 -11
29 -10 31 20 36 108 17 160 17 182 1z m-1455 -46 c-8 -16 -8 -18 4 -14 8 3 33
-4 54 -16 30 -17 44 -35 61 -74 11 -28 21 -57 21 -64 0 -6 7 -12 15 -12 8 0
15 -6 15 -14 0 -7 -7 -19 -15 -26 -10 -9 -15 -9 -15 -1 0 20 -16 12 -17 -9 -5
-61 -113 -110 -153 -70 -21 21 -50 109 -50 149 0 46 20 100 43 116 20 14 13
21 -15 16 -17 -2 -7 9 20 23 37 21 45 20 32 -4z m2000 -38 c38 -24 50 -44 48
-83 l-2 -37 -88 3 c-49 2 -102 0 -118 -5 -18 -5 -32 -5 -36 1 -3 5 -2 9 3 8
22 -4 23 3 4 27 -27 35 -27 38 10 74 28 26 37 29 93 28 36 0 71 -7 86 -16z
m-508 -44 c0 -13 1 -29 1 -35 -1 -7 2 -11 6 -9 15 10 34 -12 26 -30 -8 -18 -8
-18 -12 -1 -3 9 -9 17 -14 17 -6 0 -8 -4 -4 -9 3 -5 -6 -18 -20 -29 -17 -14
-25 -30 -26 -53 0 -19 -3 -28 -6 -21 -3 7 -18 19 -35 28 -24 12 -27 18 -17 30
9 11 9 14 -2 15 -8 1 -25 3 -39 4 -36 4 -50 -4 -47 -28 1 -13 -5 -23 -15 -25
-13 -2 -15 2 -11 19 4 15 3 20 -5 15 -7 -4 -12 -2 -12 3 0 6 -7 11 -15 11 -19
0 -39 36 -25 45 6 4 17 1 25 -5 18 -15 58 -3 51 16 -3 7 -2 13 2 12 4 -1 17 2
30 6 15 5 32 1 55 -13 32 -20 67 -15 53 7 -4 6 2 8 14 5 19 -5 25 4 21 35 -1
6 3 12 9 12 5 0 11 -10 12 -22z m-3732 -20 c0 7 11 12 25 12 20 0 25 -5 25
-24 0 -13 -5 -26 -11 -28 -12 -4 40 -118 69 -150 22 -26 -1 -51 -40 -43 -38 9
-108 -4 -108 -19 0 -7 -7 -21 -15 -32 -14 -17 -16 -18 -28 -3 -12 16 -24 17
-121 3 -39 -6 -48 -4 -44 7 3 8 24 17 48 21 23 4 45 10 48 13 12 12 -17 26
-66 32 -54 6 -64 17 -34 39 16 13 16 13 0 14 -23 0 -23 26 -2 34 9 4 31 4 50
0 18 -3 40 -1 50 4 16 9 14 12 -19 28 -20 10 -37 22 -37 27 0 5 -7 7 -15 3 -9
-3 -15 0 -15 8 0 26 40 24 95 -5 37 -20 69 -29 100 -29 50 0 51 2 30 53 -19
46 -19 68 0 43 8 -11 15 -14 15 -8z m4205 -138 c6 -18 13 -20 61 -16 59 5 70
-7 35 -38 -16 -15 -30 -17 -70 -11 -30 4 -57 2 -70 -5 -17 -9 -21 -8 -21 5 0
9 4 14 9 10 5 -3 12 -1 15 4 3 5 -1 11 -9 15 -8 3 -19 -3 -25 -14 -14 -27 -13
-37 10 -60 20 -20 20 -20 -6 -26 -31 -8 -42 1 -28 24 9 14 3 21 -37 45 -55 31
-68 64 -21 52 49 -13 94 -7 116 14 26 26 33 26 41 1z m-3235 -32 c0 5 11 10
24 10 37 0 50 -42 40 -124 -10 -76 -30 -99 -59 -71 -9 10 -20 15 -25 12 -5 -3
-11 -1 -15 5 -3 5 1 10 9 10 9 0 16 4 16 9 0 5 3 17 7 27 5 14 2 16 -21 10
l-27 -7 21 23 c19 21 20 23 3 29 -10 4 -21 5 -25 2 -5 -2 -8 0 -8 5 0 5 12 15
28 22 25 12 26 13 7 20 -12 4 -23 3 -27 -4 -6 -8 -8 -8 -8 1 0 19 33 33 47 21
8 -7 13 -7 13 0z m499 -88 c1 -30 6 -56 11 -58 13 -5 -45 -89 -70 -102 -25
-14 -44 -5 -75 36 -24 32 -23 48 2 23 8 -8 15 3 28 40 9 28 32 66 51 85 19 19
34 42 35 53 1 40 16 -21 18 -77z m2426 25 c22 -14 48 -28 57 -31 11 -4 24 -28
33 -57 20 -66 19 -67 -10 -67 -16 0 -25 6 -25 16 0 8 -4 12 -10 9 -5 -3 -10
-1 -10 6 0 8 -5 8 -17 -3 -12 -9 -27 -13 -43 -9 -21 6 -26 15 -32 56 -4 28 -9
62 -12 78 -7 35 14 36 69 2z m-868 -103 c12 -26 25 -59 29 -75 4 -17 23 -40
50 -59 46 -33 48 -37 36 -53 -9 -13 -75 -47 -67 -35 8 13 -56 38 -96 37 -19 0
-63 11 -99 25 -36 14 -73 28 -83 32 -10 3 -15 11 -12 17 4 6 14 7 24 4 80 -33
88 -19 10 20 -28 15 -49 32 -49 41 0 11 6 14 18 10 16 -6 16 -5 0 8 -17 12
-25 36 -13 36 3 0 25 -9 48 -21 42 -20 42 -20 17 0 -14 11 -31 21 -37 21 -15
0 -17 16 -5 24 5 3 42 -10 81 -29 40 -19 82 -35 93 -35 17 0 19 4 13 30 -6 29
-1 50 13 50 4 -1 17 -22 29 -48z m-393 -18 c8 -3 20 -21 27 -41 7 -21 16 -32
24 -29 17 6 35 -13 35 -37 0 -16 -3 -17 -15 -7 -13 11 -15 8 -15 -15 0 -20 4
-26 14 -22 21 8 25 -14 22 -116 -1 -61 -6 -91 -15 -96 -11 -7 -11 -9 0 -13 8
-3 11 -9 6 -14 -4 -4 -15 -1 -24 8 -15 15 -15 18 1 33 9 9 16 19 16 23 0 3 -5
1 -12 -6 -16 -16 -28 -15 -28 1 0 7 -10 18 -21 26 -18 11 -19 15 -8 23 10 7 8
8 -9 3 -16 -5 -24 -2 -28 12 -3 10 -11 29 -19 43 -7 14 -16 40 -20 58 -4 18
-18 44 -31 57 -13 13 -24 35 -24 49 0 46 71 80 124 60z m-1319 -50 c9 -14 32
-42 50 -63 32 -35 34 -40 23 -74 -9 -29 -8 -44 4 -76 9 -22 14 -42 11 -45 -3
-2 -24 9 -46 25 -23 17 -49 28 -58 26 -9 -3 -23 -1 -30 4 -10 6 -8 9 9 9 42 0
18 24 -59 57 -79 34 -76 43 5 18 27 -8 58 -15 69 -15 20 0 20 1 -3 25 -13 14
-28 25 -34 25 -14 1 -79 60 -73 66 7 8 59 -21 96 -52 18 -15 35 -24 38 -20 4
4 -4 28 -17 54 -14 26 -26 50 -28 55 -10 20 28 4 43 -19z m-1000 -2 c6 -4 17
-20 25 -36 8 -16 24 -34 35 -40 10 -6 25 -17 33 -24 7 -7 17 -10 22 -7 11 7
30 -18 47 -62 11 -29 13 -32 10 -10 -6 39 1 34 24 -19 15 -33 19 -56 14 -85
-4 -21 -10 -37 -14 -35 -3 2 -22 -8 -41 -24 -32 -26 -33 -29 -17 -45 25 -25
51 -25 59 -1 4 12 6 -5 4 -37 -6 -75 -31 -106 -124 -153 -64 -32 -82 -36 -140
-35 -83 1 -96 4 -115 20 -33 26 -8 41 68 41 54 0 78 4 89 16 19 19 11 40 -9
24 -9 -7 -15 -8 -19 -1 -4 6 -13 8 -21 4 -8 -3 -15 0 -15 7 0 9 14 11 53 6 30
-3 57 -3 60 1 12 12 -81 52 -127 54 -52 3 -86 -20 -89 -59 0 -11 -11 -25 -23
-31 -20 -9 -24 -6 -32 18 -6 18 -6 34 0 45 12 22 2 83 -16 93 -26 15 -37 53
-30 98 3 25 8 45 10 45 12 0 54 -25 54 -32 0 -16 52 -8 81 13 29 21 37 51 19
79 -10 16 -80 20 -117 7 -20 -7 -23 -5 -23 16 0 28 22 50 66 64 17 6 55 29 85
52 51 39 91 50 114 33z m2016 -57 c24 -43 36 -55 55 -55 19 0 26 7 31 30 3 17
10 33 15 37 7 3 8 -21 3 -71 -3 -41 -4 -84 0 -95 3 -12 32 -30 75 -47 49 -21
70 -34 70 -47 0 -24 -39 -14 -96 25 -24 16 -55 28 -73 28 -25 0 -34 6 -41 26
-6 15 -14 22 -22 18 -6 -4 -8 -3 -5 4 11 16 -4 44 -20 38 -8 -3 -11 -1 -8 4 3
6 -2 10 -13 10 -21 0 -79 56 -69 66 4 4 18 -5 31 -19 38 -41 41 -32 5 18 -40
56 -33 69 10 19 18 -20 35 -34 37 -31 3 3 -3 26 -15 51 -28 64 -8 58 30 -9z
m-596 -137 c5 -26 21 -60 35 -76 21 -25 27 -27 39 -15 18 18 25 10 17 -22 -4
-14 -14 -25 -22 -25 -13 0 -15 -7 -10 -31 7 -36 -2 -81 -15 -74 -4 3 -6 20 -3
38 4 31 4 31 -7 7 -7 -14 -11 -35 -10 -46 2 -20 -1 -21 -38 -14 -22 4 -47 13
-56 20 -10 8 -15 9 -15 2 0 -6 9 -16 20 -22 28 -15 25 -25 -14 -44 -47 -22
-64 -20 -32 5 32 25 34 43 4 33 -13 -5 -35 -7 -50 -6 -16 0 -28 -3 -28 -8 0
-6 -5 -10 -11 -10 -8 0 -8 4 -2 13 6 6 13 20 17 31 6 18 5 18 -18 2 -38 -24
-45 -21 -71 37 -26 54 -32 111 -15 122 6 3 10 15 10 26 0 12 10 23 25 29 14 5
25 17 25 26 0 10 3 15 6 11 4 -3 1 -21 -5 -39 l-11 -33 29 35 30 35 10 -25 c6
-16 10 -19 10 -8 1 15 23 28 61 34 8 2 21 12 29 24 24 36 53 22 66 -32z
m-2471 -146 c29 -67 30 -128 3 -166 -26 -36 -74 23 -51 63 5 9 8 31 6 49 -3
29 -5 32 -19 21 -13 -11 -17 -10 -29 5 -12 18 -15 18 -39 2 l-25 -16 0 35 c0
26 -6 39 -25 51 -14 9 -23 19 -20 22 3 3 13 -2 22 -10 21 -18 56 -32 49 -19
-10 16 19 19 39 5 10 -8 30 -14 43 -14 24 0 24 1 9 18 -10 10 -17 25 -17 32 0
25 25 -10 54 -78z m4382 33 c43 -3 57 -14 50 -38 -3 -12 0 -27 6 -35 10 -12 1
-13 -60 -10 -61 3 -72 0 -76 -14 -4 -16 -7 -16 -51 -1 -31 10 -63 14 -96 10
-37 -5 -48 -3 -43 6 18 31 26 36 49 27 17 -7 28 -4 44 11 12 11 32 19 44 18
36 -4 69 11 63 28 -5 12 -2 14 16 8 13 -4 37 -9 54 -10z m-1339 -80 c32 -29
65 -97 52 -106 -8 -5 -7 -20 5 -55 9 -26 16 -60 16 -75 0 -15 7 -29 15 -33 10
-3 15 1 15 11 0 9 3 14 6 10 13 -13 -8 -89 -26 -94 -17 -5 -30 -47 -30 -104 0
-14 -9 -36 -20 -49 -11 -13 -20 -18 -20 -13 0 6 7 16 15 23 8 7 15 24 15 39 0
25 -3 23 -48 -26 -58 -63 -77 -73 -142 -73 -40 0 -59 6 -85 26 -36 27 -75 99
-75 139 0 14 -5 25 -11 25 -5 0 -7 5 -3 12 4 6 0 16 -8 22 -24 18 -5 215 23
235 19 13 28 38 10 26 -5 -3 -12 -1 -15 4 -9 15 50 33 83 26 24 -5 31 -3 31 9
0 9 8 16 20 16 11 0 20 5 20 11 0 5 4 8 9 5 14 -9 42 5 34 17 -4 7 0 8 12 3
12 -4 22 0 32 14 l15 21 16 -23 c9 -12 26 -32 39 -43z m-947 -70 c16 -8 34
-24 40 -36 22 -40 -13 -163 -59 -211 -21 -22 -32 -26 -58 -22 -25 5 -32 2 -38
-15 -3 -11 -17 -29 -31 -40 l-25 -20 87 -141 c100 -164 134 -251 141 -366 5
-69 3 -82 -11 -87 -13 -5 -16 0 -16 29 0 24 -4 34 -12 31 -7 -2 -24 6 -38 18
-14 13 -41 32 -60 43 -37 20 -41 42 -15 72 9 10 11 21 5 30 -5 8 -6 18 -3 23
5 8 -30 43 -61 62 -11 6 -20 28 -23 55 -3 25 -14 59 -25 77 -19 31 -19 33 0
70 38 75 35 138 -7 170 -14 11 -14 14 -1 23 13 9 13 12 -2 21 -10 5 -19 8 -21
7 -2 -2 -11 3 -19 10 -20 16 -12 57 20 90 13 15 29 40 35 55 21 60 128 88 197
52z m2215 -46 c9 -17 19 -29 22 -26 2 3 20 -1 38 -9 19 -8 52 -14 74 -14 50 0
58 -13 32 -46 -11 -15 -19 -30 -16 -34 3 -4 -5 -10 -17 -13 -14 -4 -26 1 -39
17 -16 20 -25 22 -103 20 -47 -1 -86 0 -86 4 0 3 6 13 13 21 12 14 24 41 41
94 8 26 24 21 41 -14z m-4117 -48 c84 -3 120 -15 158 -52 l33 -32 40 35 c47
40 110 62 150 53 26 -6 29 -11 36 -68 14 -122 13 -132 -17 -135 -14 -2 -38
-15 -53 -30 -29 -29 -105 -53 -138 -44 -12 3 -36 16 -54 28 -19 12 -57 30 -86
40 -70 23 -207 93 -207 106 0 6 7 8 14 5 11 -4 13 -1 9 11 -4 9 -11 21 -17 25
-6 5 2 6 19 3 l30 -6 -30 16 c-16 9 -31 17 -31 18 -1 0 -5 15 -8 33 l-7 32 48
-18 c26 -10 76 -19 111 -20z m4008 -49 l-25 -50 27 -10 c15 -5 68 -9 117 -8
l90 1 0 -30 c0 -22 -4 -29 -15 -25 -29 8 -180 9 -180 0 0 -4 -12 -5 -27 -1
-18 5 -29 15 -31 29 -2 12 -8 20 -13 17 -5 -4 -9 -2 -9 4 0 6 -6 8 -14 5 -9
-3 -21 7 -32 25 -10 17 -22 31 -26 31 -13 0 -9 58 5 63 6 2 23 0 37 -5 16 -5
41 -3 70 5 25 7 46 10 48 6 2 -4 -8 -30 -22 -57z m1855 -109 c1 -17 2 -17 6 0
5 20 50 17 65 -5 27 -38 79 -160 74 -173 -6 -17 -26 -21 -26 -5 0 13 -35 13
-82 -1 -28 -7 -40 -17 -44 -36 -12 -46 63 -83 102 -50 9 6 24 20 34 29 18 16
19 15 25 -22 3 -20 3 -55 0 -76 -11 -60 -47 -176 -53 -170 -3 3 -11 1 -19 -5
-10 -9 -13 -8 -13 4 0 14 -23 22 -100 33 -40 6 -142 -18 -147 -33 -3 -7 20
-10 61 -9 36 1 59 -2 53 -6 -18 -12 48 -10 79 2 49 19 63 -15 31 -76 -15 -29
-21 -32 -88 -38 -62 -7 -76 -5 -97 11 -44 33 -37 40 39 35 94 -5 138 3 135 26
-3 17 -19 19 -66 7 -16 -4 -21 -4 -12 2 8 6 -5 10 -38 10 -27 0 -50 -4 -50 -9
0 -10 -42 0 -50 12 -3 4 -19 15 -37 23 -30 16 -39 30 -48 77 -2 12 -8 27 -12
34 -4 7 0 3 9 -7 10 -11 15 -23 12 -28 -3 -5 2 -6 10 -3 9 3 16 8 16 10 0 10
-44 90 -62 115 -20 27 -20 27 1 48 26 26 41 26 84 1 35 -21 87 -20 87 1 0 5 8
9 18 9 24 0 42 19 42 46 0 18 -8 22 -52 29 -29 5 -77 9 -106 9 l-52 -1 21 20
c16 15 30 18 61 14 75 -10 186 48 186 98 0 23 -2 24 -14 8 -7 -10 -14 -24 -14
-30 0 -7 -7 -13 -16 -13 -8 0 -12 -4 -9 -10 6 -9 -8 -14 -28 -11 -5 1 -6 -2
-3 -7 3 -5 -8 -9 -25 -9 l-30 0 28 18 c15 10 43 41 62 69 36 53 50 62 52 33z
m-2591 -226 c0 -10 9 -32 21 -49 18 -24 20 -38 15 -81 -4 -34 -1 -72 9 -110 8
-32 15 -80 15 -106 0 -46 -2 -49 -57 -92 -76 -59 -78 -60 -79 -19 -1 19 -7 48
-13 64 -19 47 14 73 50 40 23 -21 49 -11 49 18 0 32 -37 63 -56 47 -8 -6 -14
-19 -14 -28 0 -11 -7 -7 -24 14 -22 28 -25 29 -50 15 -16 -8 -30 -10 -35 -4
-5 5 -12 80 -16 167 l-7 157 28 0 c17 0 37 -11 55 -30 25 -25 33 -28 54 -20
30 11 34 24 4 15 -13 -4 -27 0 -40 11 -43 39 -2 42 54 3 23 -17 27 -17 27 -4
0 9 -6 18 -14 21 -8 3 -17 13 -21 22 -4 11 2 9 19 -7 15 -14 26 -33 26 -44z
m-809 44 c13 21 19 7 28 -71 10 -80 8 -90 -39 -150 -27 -34 -27 -38 -33 -217
l-5 -182 -36 -63 c-20 -35 -36 -57 -36 -50 0 9 -7 8 -25 -4 -15 -10 -37 -14
-55 -12 -37 6 -38 -5 -4 -44 14 -17 23 -37 20 -45 -4 -8 -6 -26 -6 -39 0 -13
-9 -32 -19 -41 -19 -15 -19 -17 -3 -29 13 -10 15 -17 6 -31 -15 -24 -36 -23
-40 2 -8 58 -16 84 -25 87 -14 5 -28 233 -16 287 5 25 9 53 8 61 -16 146 -9
237 27 358 10 36 24 59 41 70 14 9 32 23 40 30 7 7 21 10 30 8 9 -3 23 -1 31
5 11 8 9 9 -10 3 -29 -7 -28 -6 19 26 26 18 33 20 28 8 -3 -10 0 -19 9 -22 9
-3 12 -2 8 5 -3 6 4 22 17 35 14 15 25 21 28 13 2 -8 6 -7 12 2z m512 -71 c10
-35 15 -104 16 -189 1 -74 6 -151 11 -170 5 -20 12 -49 15 -64 7 -35 58 -59
128 -60 26 0 47 -4 47 -7 0 -10 -61 -90 -68 -90 -4 0 -27 11 -51 25 -26 15
-64 26 -95 29 -59 4 -96 23 -96 49 0 10 -4 16 -9 13 -5 -3 -27 12 -49 34 -22
23 -39 34 -38 25 1 -8 11 -22 22 -30 26 -19 4 -19 -24 1 -12 8 -22 11 -22 6 0
-14 -37 -3 -51 14 -6 8 -20 14 -30 14 -22 0 -89 38 -89 51 0 5 5 9 10 9 6 0
10 7 10 15 0 18 22 9 56 -23 28 -27 84 -55 84 -42 0 5 -11 17 -25 26 -14 9
-25 21 -25 28 0 6 -17 19 -38 29 -50 23 -87 53 -75 60 6 4 44 -16 86 -43 41
-28 78 -50 81 -50 13 0 -55 57 -108 90 -56 36 -68 50 -41 50 16 0 98 -47 155
-89 l34 -26 -18 25 c-11 14 -35 33 -55 43 -20 9 -47 26 -61 38 l-25 21 83 -5
c81 -5 83 -5 100 21 9 15 25 33 34 40 40 29 65 125 36 134 -9 3 -8 10 5 22 9
10 14 23 10 29 -4 7 1 6 10 -2 14 -11 18 -11 23 4 9 23 20 8 37 -55z m584 17
c15 -9 -1 -68 -21 -79 -10 -5 -12 -18 -6 -46 4 -21 9 -43 13 -48 3 -6 8 -28
10 -51 4 -32 2 -40 -8 -36 -8 2 -22 0 -32 -5 -13 -8 -24 -4 -47 15 -47 39 -71
130 -49 183 6 14 15 37 21 52 10 24 15 26 59 24 27 -1 54 -5 60 -9z m-2521
-143 c27 -9 53 -21 59 -25 13 -12 28 -11 20 1 -3 6 -1 10 5 10 7 0 9 -8 5 -20
-4 -12 -2 -20 5 -20 18 0 60 -48 55 -62 -3 -8 6 -24 19 -35 l25 -22 7 21 c5
16 8 18 15 7 5 -8 9 -10 9 -5 0 5 7 2 17 -5 12 -11 70 -15 232 -19 211 -5 217
-6 278 -34 34 -15 71 -38 83 -51 25 -26 30 -22 -68 -46 -47 -12 -70 -10 -220
15 -92 15 -198 34 -235 42 -37 8 -72 12 -76 10 -7 -5 -68 8 -101 21 -8 3 -18
5 -22 5 -5 -1 -7 1 -6 6 3 8 -25 39 -114 130 -32 32 -58 66 -58 75 0 21 4 21
66 1z m4284 -35 c0 -5 -4 -9 -10 -9 -14 0 -12 -28 2 -32 14 -5 20 -88 7 -88
-5 0 -9 -7 -9 -15 0 -7 -8 -19 -17 -24 -10 -6 -14 -11 -10 -11 4 0 18 7 31 15
21 14 23 14 22 -7 -1 -26 -21 -43 -37 -32 -8 4 -8 1 -1 -13 6 -11 9 -48 7 -84
-3 -35 -1 -80 3 -99 l8 -35 17 43 c12 29 26 46 45 52 15 6 39 17 53 25 14 8
29 12 33 8 11 -12 6 -43 -7 -43 -8 0 -24 -11 -37 -25 -13 -14 -33 -25 -45 -25
-24 0 -52 -41 -41 -59 9 -14 49 -14 62 -1 7 7 14 -2 22 -25 12 -31 15 -33 39
-24 33 12 63 3 63 -21 0 -13 -5 -17 -15 -14 -8 4 -15 10 -15 16 0 5 -6 6 -12
1 -7 -4 -18 -8 -24 -9 -13 -2 -64 -52 -64 -63 0 -4 -11 -13 -24 -19 -14 -6
-33 -23 -42 -37 -15 -22 -15 -28 -3 -35 19 -12 10 -18 -34 -23 -31 -4 -40 0
-55 20 -10 13 -24 25 -32 26 -28 5 -89 53 -115 91 -22 32 -25 45 -19 82 5 35
2 50 -16 79 -21 34 -22 45 -18 168 5 146 12 169 73 226 30 28 46 34 93 38 31
3 59 6 60 8 7 6 62 -17 62 -26z m811 10 c51 -14 112 -67 142 -124 18 -34 21
-55 19 -145 -2 -58 2 -135 9 -173 20 -125 -15 -199 -134 -279 -34 -22 -84 -62
-112 -89 -27 -26 -61 -49 -75 -51 l-25 -3 -1 155 c-2 161 0 172 14 80 l8 -55
23 44 c12 24 31 46 42 48 10 3 19 13 19 23 0 25 58 34 155 25 76 -7 91 -1 60
25 -18 15 -20 119 -4 186 13 50 0 98 -29 108 -9 4 -28 13 -41 20 -16 10 -31
12 -47 6 -28 -11 -28 -12 -48 70 -9 36 -23 75 -31 87 -19 29 -20 67 -1 60 8
-3 34 -11 57 -18z m-2524 -152 c38 -21 63 -63 87 -149 14 -45 23 -84 21 -86
-2 -2 -27 19 -55 46 -29 28 -69 58 -89 69 -20 10 -38 19 -40 20 -11 7 -18 99
-7 105 17 11 58 9 83 -5z m689 -483 c9 3 21 3 27 -1 7 -4 18 -8 27 -9 74 -7
124 -15 132 -20 9 -6 118 -11 296 -14 34 -1 62 -5 62 -10 0 -18 -36 -28 -120
-35 -87 -7 -171 5 -271 39 -24 8 -75 17 -114 21 -64 6 -125 21 -125 32 0 2 5
13 10 23 10 18 11 18 36 -6 15 -15 31 -23 40 -20z m-3197 -415 c18 -20 19 -24
5 -50 -19 -38 -65 -56 -142 -57 -63 -1 -63 -1 -60 26 2 21 17 35 68 64 74 43
101 47 129 17z m5549 -302 c3 -84 1 -122 -8 -132 -20 -24 -41 -18 -53 15 -9
24 -17 30 -40 30 -27 0 -28 2 -25 37 2 24 -2 38 -11 41 -10 3 -12 0 -8 -11 3
-9 2 -19 -3 -22 -6 -4 -10 -1 -10 4 0 6 -5 11 -12 11 -6 0 -24 14 -39 31 -21
24 -26 36 -19 49 5 10 7 20 3 23 -12 13 23 33 47 27 14 -4 34 -3 44 3 19 9 18
10 -4 22 -22 12 -22 13 23 30 26 10 52 24 59 32 10 13 15 8 32 -28 14 -33 20
-74 24 -162z m-5495 36 c3 -10 8 -35 12 -55 5 -35 4 -38 -22 -43 -15 -4 -44
-13 -63 -20 -37 -15 -53 -18 -82 -16 -14 1 -18 10 -18 36 0 41 29 75 63 75 12
0 38 8 57 19 45 24 48 24 53 4z m4737 -155 c30 -23 84 -53 120 -67 75 -30 125
-66 134 -98 6 -19 2 -23 -28 -29 -20 -3 -48 -3 -63 1 -36 9 -85 44 -78 56 4 5
2 9 -3 9 -12 0 -162 148 -162 160 0 20 26 9 80 -32z m-2281 -136 c24 -59 44
-82 115 -133 109 -77 130 -121 75 -160 l-30 -21 -15 20 c-15 21 -15 21 -34 2
-27 -27 -49 -25 -60 6 -6 14 -14 22 -20 19 -5 -3 -10 2 -10 12 0 11 -21 41
-46 69 -44 47 -74 92 -74 113 0 5 12 24 27 42 15 18 28 37 29 43 0 6 2 38 4
71 l2 60 8 -45 c4 -25 17 -69 29 -98z m-1969 -9 c22 -22 70 -114 64 -125 -8
-13 28 -59 42 -54 8 3 14 2 14 -2 0 -15 99 -12 140 4 38 16 42 15 61 -2 11
-10 29 -33 41 -52 l21 -33 -44 -40 c-24 -21 -52 -39 -62 -39 -10 0 -31 -7 -47
-16 -19 -12 -36 -14 -56 -9 -16 4 -38 8 -49 9 -11 1 -21 9 -23 20 -2 11 -10
26 -18 34 -8 7 -14 20 -14 28 0 8 -4 14 -10 14 -5 0 -7 -13 -4 -29 4 -21 2
-30 -11 -35 -25 -9 -65 4 -65 23 0 24 -32 155 -40 161 -4 3 -12 27 -19 54 -6
26 -19 56 -28 64 -15 15 -13 17 28 28 60 16 57 16 79 -3z m-1635 -172 c-3 -21
-13 -42 -21 -45 -8 -3 -14 -11 -14 -19 0 -7 -18 -21 -40 -31 -23 -10 -60 -33
-84 -51 -41 -31 -67 -39 -123 -36 -61 3 16 91 115 131 40 16 93 45 119 65 25
19 48 33 51 31 2 -3 1 -23 -3 -45z"/>
<path d="M1670 3029 c-13 -6 -26 -12 -28 -14 -5 -5 18 -46 35 -63 11 -11 14
-11 19 2 8 21 20 20 28 0 4 -12 2 -15 -9 -10 -8 3 -15 1 -15 -4 0 -20 42 -20
88 2 41 19 50 27 48 47 -5 42 -102 65 -166 40z"/>
<path d="M3055 2853 c-48 -13 -128 -12 -184 3 -21 6 -22 5 -12 -12 22 -38 49
-63 76 -70 22 -5 26 -4 20 6 -6 10 -4 12 8 7 10 -3 17 -2 17 3 0 10 73 6 89
-5 9 -5 71 59 71 74 0 14 -22 12 -85 -6z"/>
</g>
</svg>
