<?xml version="1.0" standalone="no"?>
<!DOCTYPE svg PUBLIC "-//W3C//DTD SVG 20010904//EN"
 "http://www.w3.org/TR/2001/REC-SVG-20010904/DTD/svg10.dtd">
<svg version="1.0" xmlns="http://www.w3.org/2000/svg"
 width="1280.000000pt" height="853.000000pt" viewBox="0 0 1280.000000 853.000000"
 preserveAspectRatio="xMidYMid meet">
<metadata>
Created by potrace 1.15, written by Peter Selinger 2001-2017
</metadata>
<g transform="translate(0.000000,853.000000) scale(0.100000,-0.100000)"
fill="#000000" stroke="none">
<path d="M4394 7713 c4 -450 11 -1381 16 -2068 10 -1253 14 -1387 50 -1625 10
-68 17 -127 14 -129 -2 -2 -210 1 -461 8 -252 6 -627 16 -833 21 -206 5 -528
14 -715 20 -187 6 -722 22 -1190 35 -467 14 -946 28 -1063 31 l-212 7 0 -160
0 -160 347 -7 c192 -3 431 -8 533 -11 102 -3 347 -7 545 -10 198 -3 446 -7
550 -10 105 -3 363 -7 575 -10 212 -3 475 -7 585 -10 242 -6 1494 -23 1584
-21 62 1 65 0 72 -26 4 -15 5 -37 2 -49 -6 -20 -10 -21 -92 -15 -120 8 -411
13 -1826 31 -220 3 -530 7 -690 10 -159 3 -468 7 -685 10 -827 10 -1210 16
-1352 20 l-148 5 0 -1800 0 -1800 3109 0 c3093 0 3108 0 3134 20 29 23 47 26
47 6 0 -8 7 -17 16 -20 9 -3 231 -6 494 -6 373 0 479 3 483 13 4 9 6 9 6 0 1
-10 30 -13 109 -13 l107 0 1 133 c1 72 6 211 13 307 21 309 32 748 25 1000 -4
135 -3 357 1 495 l7 249 20 -38 c28 -54 61 -192 97 -401 28 -168 61 -397 61
-431 0 -24 17 -15 30 17 7 16 18 28 24 26 168 -62 236 -77 379 -85 81 -5 150
-12 153 -15 6 -6 -6 -30 -31 -61 -11 -15 -34 -21 -105 -26 -49 -5 -105 -5
-123 0 -20 4 -50 2 -77 -6 -24 -7 -86 -19 -137 -25 -91 -12 -98 -16 -95 -49
15 -170 32 -713 28 -877 l-6 -213 2515 0 2515 0 0 4265 0 4265 -4206 0 -4206
0 6 -817z m2359 -1891 c7 -5 23 -13 37 -17 28 -8 150 -104 150 -117 0 -5 -9
-4 -20 2 -13 7 -20 7 -20 0 0 -13 32 -50 43 -50 5 0 4 7 -3 15 -19 22 -7 18
21 -7 14 -13 34 -42 45 -65 10 -24 26 -43 34 -43 13 0 13 -2 1 -9 -17 -11 -49
6 -56 31 -3 9 -12 19 -21 22 -23 9 0 -28 33 -53 45 -34 53 -41 53 -51 0 -13
-37 -13 -45 0 -3 6 -13 10 -22 10 -8 0 -38 21 -67 46 -28 26 -62 51 -76 55
-23 9 -60 58 -60 80 0 14 47 0 105 -30 67 -35 65 -34 65 -22 0 6 -6 11 -14 11
-7 0 -19 7 -26 15 -7 8 -16 13 -20 10 -5 -3 -6 4 -3 16 5 19 3 21 -24 15 -23
-5 -41 0 -79 22 -62 37 -162 59 -201 44 -16 -6 -43 -14 -60 -17 -37 -7 -52
-23 -33 -35 11 -7 10 -13 -4 -34 -19 -30 -24 -31 -54 -10 -34 23 -27 47 27 95
74 67 83 73 105 81 28 10 174 2 189 -10z m-265 -756 c25 5 32 3 32 -9 0 -22
-16 -61 -32 -78 -7 -8 -19 -26 -25 -41 -10 -21 -9 -29 3 -38 18 -16 19 -90 1
-90 -7 0 -26 19 -41 42 -26 40 -27 45 -21 136 6 109 12 123 34 93 13 -17 23
-20 49 -15z m836 -575 c9 -7 16 -22 16 -32 0 -11 4 -19 9 -19 13 0 21 -27 15
-45 -9 -24 -33 -17 -40 11 -4 16 -11 23 -21 20 -9 -4 -11 -2 -7 6 5 7 -1 9
-20 6 -14 -3 -29 -2 -31 3 -7 10 -60 -5 -91 -26 -20 -13 -23 -21 -18 -50 3
-20 1 -35 -5 -35 -15 0 -23 18 -28 65 -4 45 8 81 36 102 22 16 164 11 185 -6z
m-1694 -74 c11 3 20 1 21 -3 5 -81 4 -94 -5 -94 -6 0 2 -11 17 -25 21 -21 27
-35 27 -70 0 -24 2 -49 3 -57 2 -7 2 -10 0 -5 -3 4 -9 7 -14 7 -6 0 -8 -4 -4
-9 8 -14 -35 -25 -48 -12 -17 17 -30 13 -24 -8 4 -15 -2 -22 -24 -30 -20 -7
-31 -6 -35 1 -4 7 -10 5 -16 -6 -11 -20 -1 -39 18 -32 8 3 14 -1 14 -9 0 -8 5
-15 11 -15 6 0 8 9 4 20 -4 11 -2 20 4 20 15 0 14 -33 -1 -48 -9 -9 -7 -13 6
-18 15 -6 15 -7 -1 -21 -13 -10 -15 -16 -5 -19 6 -3 12 -13 13 -22 1 -10 4 -7
9 8 l8 25 1 -26 c1 -14 12 -43 26 -63 30 -44 30 -53 7 -84 -17 -22 -18 -22
-40 -5 -12 10 -36 29 -54 42 -35 25 -78 84 -78 105 0 6 -5 17 -12 24 -9 9 -7
13 5 18 9 3 17 12 17 20 0 7 9 30 21 50 11 21 16 40 11 43 -5 3 -9 26 -9 50 0
48 -12 61 -33 36 -14 -17 -40 -20 -40 -5 0 6 4 10 9 10 5 0 14 14 21 30 9 22
19 30 37 30 18 0 23 4 20 14 -7 18 13 26 69 26 42 0 45 1 38 23 -4 12 -7 27
-7 33 0 6 -7 11 -16 10 -8 0 -16 8 -18 19 l-3 20 9 -20 c9 -18 10 -16 11 10 1
17 4 25 6 19 3 -7 14 -10 24 -7z m894 -1009 c12 -71 23 -247 31 -489 4 -142 2
-186 -11 -235 -9 -32 -19 -72 -23 -89 l-7 -30 -6 28 c-3 15 -1 30 4 33 5 4 7
17 4 30 -4 13 -3 24 1 23 22 -4 24 3 9 20 -10 11 -15 25 -11 31 6 9 10 9 16
-1 6 -10 9 -6 9 14 0 15 -4 27 -9 27 -5 0 -8 44 -7 99 1 54 -3 157 -10 227 -6
79 -7 131 -1 135 5 4 5 9 0 12 -5 3 -10 23 -11 44 -2 21 -6 64 -11 96 -7 50
-6 57 10 57 11 0 19 -11 23 -32z m93 -869 c-3 -11 0 -19 6 -19 8 0 7 -4 -2 -9
-17 -11 -6 -67 15 -75 8 -3 14 -1 14 5 0 12 83 8 113 -5 12 -6 17 -4 17 8 0 9
5 16 10 16 6 0 10 -4 10 -10 0 -5 5 -10 10 -10 6 0 10 9 10 21 0 11 5 17 10
14 6 -3 10 -15 10 -25 0 -25 40 -31 225 -32 98 0 153 -5 158 -12 5 -8 9 -8 15
0 23 34 72 24 72 -15 0 -38 10 -44 33 -24 13 11 17 12 12 4 -6 -11 -4 -13 8
-8 19 7 22 -5 8 -31 -20 -39 -28 -171 -12 -200 5 -9 11 11 16 59 7 64 9 70 15
41 13 -56 23 -50 17 9 -3 31 -2 62 3 69 12 19 24 -70 16 -122 -14 -92 -18
-406 -6 -425 9 -15 10 -9 6 31 -3 26 -1 132 4 235 6 102 11 205 12 228 1 48
32 93 51 74 12 -12 15 -1510 4 -1631 -4 -36 -11 -150 -17 -255 -6 -104 -13
-201 -15 -215 -2 -14 -4 -34 -4 -44 -1 -11 -4 -17 -7 -13 -4 3 -13 0 -21 -8
-8 -8 -28 -15 -44 -15 -16 0 -29 -4 -29 -10 0 -5 -8 -2 -18 8 -26 23 -16 35
21 26 31 -6 32 -6 14 13 -10 11 -17 26 -15 34 2 7 -4 13 -12 14 -10 0 -14 9
-12 26 1 19 -5 29 -23 39 -14 7 -25 18 -25 24 0 21 -40 47 -63 41 -22 -5 -22
-5 1 6 12 7 22 18 22 26 0 8 -4 12 -9 9 -11 -7 -23 22 -16 35 4 5 -1 6 -10 3
-11 -4 -14 -2 -10 9 8 19 -21 48 -40 41 -9 -4 -15 0 -15 10 0 9 -7 16 -15 16
-8 0 -12 6 -9 14 7 19 -12 29 -42 22 -34 -9 -31 -28 4 -20 19 4 23 3 13 -4 -8
-6 -11 -17 -8 -26 5 -11 1 -16 -13 -16 -11 0 -20 6 -20 14 0 28 -26 38 -69 26
-32 -8 -46 -7 -75 7 -20 9 -36 20 -36 25 0 4 -7 8 -15 8 -7 0 -18 6 -22 13 -4
8 -16 18 -27 24 -17 9 -16 11 8 17 21 5 26 11 21 26 -4 13 -1 22 10 26 12 5
13 9 4 20 -15 18 -29 18 -29 0 0 -8 -6 -16 -12 -19 -10 -3 -10 -8 1 -21 16
-19 6 -35 -11 -18 -7 7 -17 8 -30 1 -13 -7 -18 -6 -18 2 0 7 -3 9 -7 6 -3 -4
-12 2 -20 13 -8 11 -22 20 -31 20 -15 0 -15 2 -2 10 9 6 10 10 3 10 -7 0 -16
-7 -21 -16 -11 -19 -68 -29 -77 -14 -3 6 -1 10 6 10 14 0 9 8 -6 10 -5 1 -18
9 -27 17 -16 15 -18 15 -18 0 0 -10 -6 -13 -20 -10 -14 4 -20 1 -18 -7 4 -17
-13 -22 -32 -10 -13 9 -13 12 3 21 12 7 16 17 11 32 -5 17 -4 19 6 10 11 -10
41 -4 68 13 2 1 -1 12 -8 23 -6 12 -15 19 -19 17 -4 -3 -17 2 -29 10 -27 19
-30 48 -4 40 13 -5 22 1 29 16 9 20 7 23 -11 24 -11 0 -34 4 -50 9 -25 7 -28
5 -23 -8 3 -9 2 -19 -3 -22 -6 -4 -10 1 -10 9 0 20 -9 20 -34 1 -18 -13 -17
-14 9 -21 14 -4 37 -17 50 -30 24 -24 23 -37 -1 -27 -8 3 -14 -1 -14 -11 0 -9
5 -16 10 -16 6 0 10 -10 10 -22 -1 -20 -2 -21 -13 -8 -17 21 -53 48 -43 33 4
-9 1 -13 -10 -13 -12 0 -15 -6 -12 -25 3 -13 1 -22 -3 -19 -29 18 10 93 44 86
14 -3 18 1 15 15 -2 10 -10 19 -18 19 -8 1 -18 3 -22 4 -5 1 -12 3 -17 4 -5 0
-13 4 -17 8 -4 5 -18 8 -30 8 -13 0 -42 7 -64 16 -39 16 -40 15 -67 -7 -16
-13 -28 -30 -29 -36 -1 -7 -2 -22 -2 -33 -1 -11 -8 -20 -16 -20 -8 0 -17 -6
-20 -12 -5 -10 -7 -10 -12 0 -11 23 -24 12 -24 -20 0 -27 -13 -33 -16 -7 -4
30 -7 31 -13 4 -8 -31 4 -59 20 -49 5 3 9 0 9 -7 0 -6 -8 -9 -20 -6 -10 3 -21
0 -24 -7 -2 -6 -5 14 -5 44 -1 38 -4 50 -11 40 -5 -8 -12 -11 -15 -8 -11 11 5
28 25 28 10 0 22 4 25 10 8 13 -5 35 -14 24 -3 -5 -33 -22 -66 -39 -33 -16
-63 -34 -66 -39 -4 -5 -12 1 -18 12 -9 17 -9 21 2 16 8 -3 14 2 14 10 0 8 -6
17 -14 20 -7 3 -13 2 -13 -2 0 -4 -23 -6 -52 -5 -55 2 -62 7 -85 73 -10 28
-10 39 1 55 10 15 10 27 2 50 -20 54 -33 69 -62 70 -22 1 -33 11 -50 40 -26
48 -50 60 -40 22 5 -20 1 -29 -14 -37 -11 -6 -20 -8 -20 -5 0 3 -9 1 -20 -5
-11 -6 -20 -18 -20 -28 0 -13 -2 -14 -9 -4 -6 10 -11 6 -19 -17 -10 -30 -10
-31 16 -32 l27 -1 -29 -10 c-21 -8 -25 -13 -15 -19 10 -6 8 -9 -8 -9 -15 0
-27 12 -43 44 -11 24 -27 47 -35 50 -20 7 -19 26 0 26 19 0 19 7 0 27 -19 18
-25 14 -29 -21 -5 -46 -16 -41 -16 6 0 26 5 48 11 50 6 2 11 20 12 41 1 23 6
37 14 37 8 0 13 14 13 40 0 31 -3 38 -15 34 -9 -4 -15 0 -15 10 0 14 -8 17
-47 16 -5 0 -8 -8 -9 -18 -3 -53 -4 -55 -18 -43 -10 9 -19 7 -36 -7 -19 -15
-31 -17 -59 -11 -20 4 -40 4 -47 -2 -6 -5 -31 -10 -55 -10 -24 -1 -52 -9 -63
-18 -10 -9 -20 -15 -22 -13 -2 1 -9 2 -14 2 -14 0 17 -32 51 -54 24 -15 26
-20 19 -57 -8 -44 -17 -59 -28 -44 -10 14 -53 34 -82 37 -17 2 -24 8 -22 19 3
20 -22 32 -52 24 -12 -3 -15 -2 -8 1 21 10 13 26 -9 19 -18 -6 -21 -4 -17 12
4 16 1 18 -23 15 -16 -2 -27 -8 -24 -12 3 -4 -8 -14 -24 -21 -39 -20 -27 -54
24 -63 29 -6 37 -12 41 -34 3 -16 18 -34 34 -44 27 -15 28 -19 24 -78 -2 -35
-10 -70 -17 -79 -8 -9 -12 -22 -10 -28 3 -7 0 -13 -6 -13 -6 0 -11 5 -11 10 0
6 -5 10 -11 10 -6 0 -8 -8 -4 -19 3 -11 1 -22 -5 -26 -6 -4 -10 5 -10 23 0 25
-3 29 -20 25 -11 -3 -20 0 -20 6 0 6 -7 11 -15 11 -8 0 -15 -6 -15 -14 0 -11
-9 -11 -45 -3 -25 6 -45 15 -45 20 0 5 -5 5 -13 -1 -9 -8 -23 -2 -52 24 -22
19 -44 34 -50 34 -15 -1 -45 -26 -45 -37 0 -6 -6 -11 -12 -10 -44 1 -60 -4
-55 -18 4 -8 2 -17 -2 -20 -5 -2 -11 9 -15 25 -6 32 -23 40 -32 15 -4 -8 -14
-15 -24 -15 -10 0 -23 -7 -30 -15 -7 -8 -16 -12 -21 -9 -5 3 -9 0 -9 -5 0 -6
7 -11 15 -11 7 0 18 -6 22 -13 8 -12 47 -37 59 -37 4 0 1 6 -5 14 -7 8 -8 17
-3 20 6 3 22 -10 36 -29 26 -33 24 -49 -2 -23 -9 9 -12 8 -12 -5 0 -9 9 -21
21 -27 11 -7 18 -14 15 -17 -3 -3 -11 -1 -18 5 -9 7 -20 6 -38 -3 -14 -8 -33
-14 -43 -15 -10 0 -20 -7 -24 -16 -4 -10 -17 -15 -37 -14 -49 3 -58 1 -50 -12
5 -8 2 -9 -10 -5 -10 4 -25 7 -33 7 -10 0 -14 6 -11 18 4 13 -2 17 -24 19 -25
2 -33 -6 -29 -29 0 -4 -6 -5 -15 -1 -13 5 -15 1 -10 -18 3 -13 3 -19 0 -13 -6
13 -45 6 -56 -10 -4 -6 -11 0 -16 14 -10 28 -20 27 -40 -2 -10 -13 -17 -16
-26 -9 -16 13 -56 3 -56 -15 0 -14 -47 -23 -70 -12 -8 3 -23 9 -33 12 -10 3
-15 11 -12 17 4 6 13 8 20 5 8 -3 16 0 19 7 5 9 8 9 12 -1 4 -10 12 -4 25 17
10 17 25 31 33 31 8 0 16 7 20 15 3 9 0 15 -9 15 -21 0 -19 20 3 21 9 1 21 1
25 0 5 -1 6 3 2 9 -3 5 -2 10 3 10 5 0 12 9 15 20 3 12 14 20 26 20 22 0 28
14 11 25 -6 4 -8 15 -5 26 5 14 2 19 -14 19 -11 0 -23 -4 -26 -10 -3 -5 -17
-10 -30 -10 -19 0 -23 4 -18 18 4 9 13 23 20 30 7 7 13 20 13 27 0 10 6 12 17
8 17 -7 17 -6 0 20 -21 33 -21 37 1 37 25 0 47 47 31 66 -9 11 -7 14 10 14 24
0 28 15 6 24 -17 6 -9 31 21 60 17 17 74 22 74 6 0 -13 63 -6 68 8 2 6 9 9 17
6 7 -3 23 0 35 6 21 11 22 21 5 63 -4 10 -3 17 4 17 15 0 61 41 61 55 0 6 12
22 26 36 22 21 25 30 20 66 -5 41 -4 42 46 79 29 20 59 37 68 38 8 1 25 7 37
14 11 6 38 11 60 11 21 -1 64 2 96 6 40 6 57 5 57 -4 0 -15 109 40 109 56 1
14 46 10 98 -9 32 -12 37 -11 52 8 9 11 21 19 27 17 6 -2 27 0 48 4 32 7 40
14 51 45 7 21 10 40 7 43 -3 3 2 5 11 5 8 0 17 4 19 9 3 10 35 15 81 13 17 -1
27 -8 27 -17 0 -8 5 -15 12 -15 6 0 9 -3 6 -6 -3 -3 4 -15 16 -28 11 -12 29
-32 38 -44 23 -28 34 -28 54 3 14 22 21 24 58 19 22 -4 51 -13 63 -20 31 -19
42 -18 67 10 26 30 89 49 105 33 9 -9 14 -8 20 2 8 12 27 199 24 231 -3 25 38
210 64 294 14 44 36 97 49 118 13 20 24 41 24 44 0 9 41 44 52 44 4 0 8 -4 8
-10 0 -18 18 -10 23 10 3 11 13 20 22 20 12 0 15 5 10 20 -6 19 3 25 28 21 4
-1 10 6 13 14 3 8 10 13 14 10 5 -3 20 -1 34 5 14 5 33 7 41 4 18 -7 20 -34 3
-34 -7 0 -5 -5 4 -12 10 -8 18 -34 22 -68 3 -30 7 -75 10 -100 3 -25 5 -106 4
-180 -1 -74 -2 -160 -2 -191 0 -57 21 -116 50 -140 12 -10 11 -5 -4 23 -17 29
-19 49 -16 113 4 77 14 116 14 59 1 -16 8 -47 16 -69 8 -22 19 -67 24 -100 5
-33 14 -96 20 -140 6 -44 18 -86 25 -94 16 -16 17 -14 29 42 4 15 11 27 17 27
6 0 8 -7 5 -15 -8 -21 15 -55 37 -55 12 0 17 -6 16 -17 -3 -27 12 -73 23 -73
7 0 9 77 5 233 -4 183 -8 242 -22 277 -9 25 -21 97 -27 161 -10 104 -10 119 5
133 8 9 18 13 20 9 8 -14 5 -63 -4 -63 -5 0 -9 -5 -9 -11 0 -5 6 -7 12 -3 18
11 48 12 54 2 9 -14 20 -9 21 12 1 11 -2 20 -8 20 -5 0 -9 19 -8 43 1 35 2 38
9 17 l7 -25 5 30 c4 25 5 23 7 -13 0 -24 5 -41 9 -38 4 2 8 -9 7 -25 0 -16 -3
-29 -6 -29 -3 0 -6 -7 -6 -15 0 -8 4 -15 9 -15 4 0 8 -7 8 -16 0 -8 -5 -12
-11 -9 -16 11 0 -88 17 -101 8 -6 14 -17 14 -23 0 -7 5 -9 10 -6 6 3 10 -3 10
-14 0 -20 10 -27 22 -16 2 3 1 35 -4 71 -4 40 -4 73 2 85 7 12 7 20 -1 25 -6
3 -8 15 -5 27 3 11 -2 33 -10 49 -9 17 -13 36 -10 44 3 7 2 16 -3 18 -4 3 -8
23 -9 46 -2 38 -1 40 19 30 25 -14 34 -7 25 17 -5 12 -9 14 -14 6 -5 -8 -13
-9 -22 -3 -12 7 -12 12 -2 22 8 8 12 8 12 1 0 -6 8 -10 18 -9 14 2 17 14 18
62 1 115 4 135 15 128 6 -3 9 -15 6 -25z m3483 -913 c0 -3 14 -42 30 -88 l31
-83 -26 32 c-32 40 -85 73 -118 73 -15 0 -64 -9 -111 -20 -78 -18 -159 -18
-139 0 4 4 53 20 108 35 55 15 120 33 145 40 46 14 80 18 80 11z m-140 -285
c17 -5 21 -9 12 -15 -6 -4 -12 -26 -12 -49 0 -23 -7 -82 -15 -132 -8 -49 -15
-113 -15 -142 0 -28 -4 -54 -8 -57 -5 -3 -54 -8 -109 -12 l-101 -7 1 44 c1 37
-43 297 -59 351 -5 16 7 18 113 21 65 1 129 3 143 4 14 0 36 -2 50 -6z m-654
-19 c7 -5 4 -65 -10 -199 l-21 -193 -50 0 c-99 0 -155 11 -155 30 0 26 -58
339 -65 350 -3 5 9 11 27 13 60 7 263 7 274 -1z m2298 -91 c3 -5 -25 -12 -64
-16 -127 -13 -83 -24 70 -18 99 4 150 2 150 -4 0 -15 -56 -36 -71 -27 -7 4
-10 3 -6 -3 4 -6 -12 -13 -41 -16 -92 -11 -328 -36 -400 -42 -39 -4 -75 -11
-78 -16 -3 -6 -14 -7 -24 -4 -12 4 -22 -1 -29 -13 -9 -16 -16 -18 -58 -11 -42
7 -347 -12 -407 -26 -10 -2 -42 0 -70 5 -60 10 -197 22 -244 21 -18 -1 -31 3
-28 8 3 5 -4 7 -15 4 -21 -6 -21 -5 -5 19 9 14 27 27 39 29 12 2 145 4 294 4
247 0 273 2 273 16 0 22 23 30 60 23 16 -4 42 -3 57 1 28 7 28 7 5 16 -13 5
-58 7 -100 4 -42 -2 -111 -1 -152 3 l-75 7 110 6 c61 4 222 7 358 8 195 1 249
4 253 14 6 16 189 23 198 8z m-6329 -71 c10 -11 15 -20 11 -20 -3 0 1 -14 10
-31 9 -19 13 -41 9 -57 -4 -16 -1 -28 7 -34 9 -6 10 -10 2 -15 -6 -5 -15 -22
-18 -40 -7 -30 -18 -35 -42 -20 -15 9 -2 73 14 69 7 -1 12 5 12 14 0 13 -3 14
-14 5 -10 -9 -16 -8 -26 3 -6 9 -9 20 -6 25 4 5 2 12 -3 15 -12 8 -21 59 -14
85 7 26 34 27 58 1z m1158 -672 c7 -26 0 -41 -17 -35 -22 8 -18 -57 4 -81 11
-11 20 -23 20 -25 0 -9 -36 -3 -42 7 -5 6 -8 1 -8 -11 0 -13 -4 -23 -10 -23
-5 0 -10 5 -10 11 0 5 -5 7 -10 4 -6 -4 -8 -10 -6 -14 3 -4 0 -13 -5 -21 -8
-13 -10 -13 -19 0 -8 11 -9 8 -6 -14 3 -17 12 -34 20 -38 8 -5 13 -15 10 -23
-9 -22 -22 -18 -26 8 -2 14 -11 23 -26 25 -15 2 -22 9 -18 17 7 20 -10 28 -34
15 -26 -14 -46 -4 -30 15 8 10 8 15 0 20 -27 17 6 37 57 36 30 -1 35 10 18 42
-11 22 -11 28 4 41 19 18 46 22 36 6 -7 -12 -3 -12 19 -4 9 3 16 12 16 20 0 8
7 14 15 14 9 0 12 6 9 15 -4 10 0 15 14 15 12 0 22 -9 25 -22z m-677 -83 c28
-24 43 -29 72 -26 8 1 16 -7 19 -18 3 -12 9 -18 14 -15 5 2 19 -2 33 -11 20
-14 24 -14 29 -1 3 8 21 16 39 18 29 3 33 6 30 28 l-4 25 22 -28 c21 -26 21
-29 6 -60 -8 -18 -16 -27 -16 -21 0 6 -15 11 -32 10 -31 -1 -33 -3 -30 -33 1
-18 -2 -33 -8 -33 -5 0 -10 -8 -10 -17 -1 -17 -1 -17 -11 0 -5 9 -18 17 -27
17 -11 0 -18 8 -19 21 -2 20 -37 59 -54 59 -4 0 -11 -5 -14 -10 -4 -6 -16 -8
-28 -4 -12 4 -33 8 -47 9 -39 3 -40 4 -40 30 0 19 5 25 23 26 12 0 17 3 10 5
-9 4 -9 11 -1 30 6 13 12 24 13 24 1 0 15 -11 31 -25z"/>
<path d="M6809 2183 c-1 -4 -2 -30 -3 -58 -2 -27 -6 -61 -11 -75 -4 -14 -16
-126 -25 -250 -10 -124 -21 -262 -25 -307 -5 -58 -4 -83 4 -83 6 0 11 -11 11
-25 0 -15 -6 -25 -14 -25 -7 0 -18 -17 -23 -39 -9 -35 -9 -38 8 -34 14 4 16 9
9 23 -7 13 -6 20 5 24 12 4 15 -4 14 -42 0 -34 -3 -42 -9 -27 -7 18 -9 18 -20
-10 -6 -16 -9 -45 -5 -63 5 -28 9 -31 21 -21 8 6 17 9 21 5 3 -3 1 -6 -5 -6
-7 0 -12 -12 -12 -27 0 -22 -2 -25 -10 -13 -5 8 -10 10 -10 4 0 -5 6 -19 14
-29 10 -14 11 -25 4 -38 -11 -21 -3 -51 11 -43 5 4 11 0 14 -6 8 -23 14 15 43
277 2 22 8 76 13 120 5 44 10 186 10 315 1 129 6 273 11 319 7 63 7 90 -3 109
-12 26 -36 41 -38 25z"/>
<path d="M6876 1448 c-5 -16 -24 -147 -30 -213 -3 -27 -14 -96 -24 -151 -20
-109 -15 -149 15 -141 10 3 34 8 54 11 39 7 48 31 20 53 -14 11 -13 12 7 13
13 0 22 6 22 16 0 11 -6 14 -22 8 -23 -7 -23 -6 -4 15 19 21 19 21 -3 21 -12
0 -19 4 -16 10 3 6 1 10 -4 10 -6 0 -11 7 -11 15 0 8 5 15 12 15 6 0 3 7 -8
16 -12 10 -15 17 -7 20 8 4 8 15 2 37 -5 19 -5 46 0 63 5 16 9 67 9 112 0 77
-4 98 -12 70z"/>
</g>
</svg>
